PathFileType	4	(X/Y/Z)	D:\Share\Shared_Data\Ergonomics\Sit To Stand Pertubation\S2\S2 Cal 01.trc
DataRate	CameraRate	NumFrames	NumMarkers	Units	OrigDataRate	OrigDataStartFrame	OrigNumFrames	
100	100	9	21	mm	100	52	206
Frame#	Time	R_ASIS			R_Pelvis			V_Sacral			L_Pelvis			L_ASIS			Clavical			R_Acromium			L_Acromium			Sternum			Torso			R_Thigh_Med			R_Thigh_Lat			R_Thigh			R_Shank_Med			R_Shank_Lat			R_Shank			R_Heel			R_Toe			RAJC			RHJC			RKJC			
		X1	Y1	Z1	X2	Y2	Z2	X3	Y3	Z3	X4	Y4	Z4	X5	Y5	Z5	X6	Y6	Z6	X7	Y7	Z7	X8	Y8	Z8	X9	Y9	Z9	X10	Y10	Z10	X11	Y11	Z11	X12	Y12	Z12	X13	Y13	Z13	X14	Y14	Z14	X15	Y15	Z15	X16	Y16	Z16	X17	Y17	Z17	X18	Y18	Z18	X19	Y19	Z19	X20	Y20	Z20	X21	Y21	Z21	

52	0.51	425.79803	1026.476	128.34201	352.15475	1029.5759	168.60995	219.31682	1039.4692	-3.1613195	334.10788	1040.7911	-173.66203	420.1611	1037.6224	-137.28482	405.29733	1449.9066	-9.858552	299.59119	1474.038	195.23039	298.24637	1481.5027	-198.68945	450.9729	1289.9155	-13.270285	415.68552	1410.3604	-123.93682	341.66165	494.80414	63.194149	335.78656	516.6582	152.4368	431.08868	674.41614	128.32243	304.84277	106.3702	69.056541	283.4408	100.7058	160.33731	302.99466	372.06604	183.48422	204.60124	60.601387	111.42033	441.90143	64.540207	108.83402	294.141785	103.538	114.6969255	362.9121634	939.6278002	88.08380216	338.724105	505.73117	107.8154745
53	0.52	425.81161	1026.4773	128.31001	352.16382	1029.5677	168.59485	219.32324	1039.4658	-3.2012594	334.12469	1040.7854	-173.69348	420.17526	1037.6273	-137.31645	405.26956	1449.9059	-9.8750467	299.5762	1473.9934	195.17978	298.17023	1481.4796	-198.69058	450.94037	1289.9302	-13.28505	415.62735	1410.3569	-123.97768	341.73416	494.80981	63.183205	335.81976	516.65686	152.41402	431.14297	674.43036	128.30785	304.83228	106.35583	69.058098	283.45236	100.71308	160.33226	303.01874	372.06552	183.46214	204.59705	60.595127	111.44392	441.91403	64.53923	108.82906	294.14232	103.534455	114.695179	362.9271843	939.6276278	88.05041161	338.77696	505.733335	107.7986125
54	0.53	425.82916	1026.4778	128.28125	352.19534	1029.5786	168.54399	219.3403	1039.4518	-3.2346938	334.16479	1040.7859	-173.73044	420.16373	1037.6573	-137.33682	405.23615	1449.8944	-9.9101954	299.57422	1473.983	195.1819	298.14352	1481.5383	-198.69203	450.89594	1289.9272	-13.3202	415.57498	1410.3745	-124.00172	341.73724	494.79691	63.161926	335.85693	516.65576	152.38947	431.1799	674.42834	128.28818	304.8316	106.35857	69.059723	283.45221	100.71654	160.33975	303.07401	372.0708	183.45689	204.60136	60.599049	111.43015	441.90494	64.538658	108.80927	294.141905	103.537555	114.6997365	362.9570022	939.6253361	88.01928113	338.797085	505.726335	107.775698
55	0.54	425.85181	1026.4841	128.24243	352.21155	1029.5717	168.52296	219.34576	1039.4362	-3.2700579	334.14044	1040.7903	-173.79526	420.17667	1037.6583	-137.36905	405.21509	1449.8868	-9.9464531	299.54834	1473.9601	195.15549	298.09116	1481.5441	-198.71049	450.88766	1289.934	-13.354566	415.52298	1410.4038	-124.00732	341.78217	494.79715	63.134514	335.89127	516.64441	152.37601	431.21948	674.42773	128.27187	304.83994	106.35978	69.033607	283.44052	100.70702	160.32472	303.09012	372.08731	183.44133	204.6138	60.614338	111.4446	441.90717	64.535156	108.80064	294.14023	103.5334	114.6791635	362.9841454	939.6268252	87.98525991	338.83672	505.72078	107.755262
56	0.55	425.85132	1026.4723	128.21262	352.23322	1029.5775	168.49747	219.36578	1039.4636	-3.2753286	334.15417	1040.7922	-173.81958	420.1926	1037.6758	-137.39896	405.18576	1449.8882	-9.9750786	299.52972	1473.9464	195.18382	298.02618	1481.5486	-198.71997	450.87659	1289.9407	-13.391569	415.4671	1410.4171	-124.03328	341.77924	494.79953	63.13002	335.92618	516.64417	152.3627	431.25116	674.42487	128.25511	304.83524	106.36406	69.05246	283.43396	100.73042	160.2856	303.10437	372.08841	183.43385	204.61523	60.622772	111.46468	441.90704	64.536896	108.80386	294.1346	103.54724	114.66903	362.9772799	939.627166	87.94233766	338.85271	505.72185	107.74636
57	0.56	425.87659	1026.4801	128.18008	352.25748	1029.5748	168.48174	219.36963	1039.4512	-3.2981281	334.15714	1040.7882	-173.83504	420.18558	1037.6829	-137.42963	405.15079	1449.8853	-9.9997749	299.51245	1473.9222	195.15778	297.96841	1481.5494	-198.71805	450.82782	1289.9469	-13.408883	415.41348	1410.4042	-124.06963	341.82895	494.7919	63.118214	335.93558	516.64111	152.347	431.27026	674.42664	128.23779	304.82993	106.3581	69.055412	283.44815	100.71638	160.32384	303.12665	372.08954	183.43016	204.60619	60.612404	111.44743	441.90808	64.531364	108.79417	294.13904	103.53724	114.689626	363.0055397	939.6289735	87.91744784	338.882265	505.716505	107.732607
58	0.57	425.85309	1026.4811	128.16554	352.28522	1029.5715	168.45535	219.38857	1039.4397	-3.3058736	334.15897	1040.8016	-173.85643	420.17651	1037.6914	-137.45969	405.10837	1449.89	-10.018209	299.492	1473.9041	195.16228	297.91931	1481.5557	-198.7491	450.82028	1289.959	-13.452274	415.36844	1410.4155	-124.0948	341.85583	494.80161	63.106358	335.96454	516.63098	152.33182	431.28592	674.4234	128.2166	304.84668	106.35614	69.04261	283.44321	100.71027	160.31999	303.13397	372.086	183.42505	204.61613	60.618237	111.44699	441.89941	64.521225	108.82272	294.144945	103.533205	114.6813	362.9986213	939.6219645	87.89384724	338.910185	505.716295	107.719089
59	0.58	425.90274	1026.4753	128.13914	352.32309	1029.5729	168.43582	219.40315	1039.4589	-3.3277807	334.14774	1040.7982	-173.87901	420.17422	1037.7064	-137.47636	405.07144	1449.8877	-10.043922	299.4794	1473.8944	195.17691	297.86102	1481.5693	-198.74516	450.78809	1289.9675	-13.509424	415.31262	1410.4335	-124.11388	341.92703	494.81485	63.105747	335.98593	516.63538	152.32219	431.30212	674.42139	128.1951	304.83493	106.35131	69.043533	283.44308	100.72974	160.28145	303.14511	372.08975	183.40445	204.61316	60.632183	111.45723	441.9043	64.544571	108.81261	294.139005	103.540525	114.6624915	363.0326857	939.6255536	87.87461224	338.95648	505.725115	107.7139685
60	0.59	425.91699	1026.4679	128.10284	352.34784	1029.5699	168.4118	219.4137	1039.4508	-3.3579884	334.14447	1040.797	-173.90674	420.16776	1037.7031	-137.51445	405.06128	1449.8837	-10.063764	299.46194	1473.8794	195.18175	297.77631	1481.546	-198.7775	450.78891	1289.9703	-13.540847	415.27179	1410.4309	-124.147	341.91367	494.81183	63.075981	336.00098	516.63574	152.30484	431.31339	674.42194	128.17503	304.83722	106.35041	69.038582	283.46088	100.71442	160.33467	303.16666	372.09665	183.40471	204.60577	60.603497	111.43034	441.8985	64.537491	108.80839	294.14905	103.532415	114.686626	363.0466177	939.6171296	87.841355	338.957325	505.723785	107.6904105
